<?xml version="1.0" encoding="utf-8"?>
<!-- Generator: Adobe Illustrator 25.0.1, SVG Export Plug-In . SVG Version: 6.00 Build 0)  -->
<svg version="1.1" id="Layer_1" xmlns="http://www.w3.org/2000/svg" xmlns:xlink="http://www.w3.org/1999/xlink" x="0px"
	y="0px" viewBox="0 0 6000 6000" style="enable-background:new 0 0 6000 6000;" xml:space="preserve">
	<style type="text/css">
		.st0 {
			fill: none;
			stroke: #000000;
			stroke-miterlimit: 10;
		}
	</style>
	<path class="st0" d="M3237.43,5513.4c-207.02-125-412.08-252.57-622.25-373.45c-64.44-37.06-87.72-76.19-87.05-142.69
	c3.71-368.77,3.58-737.6,0.11-1106.37c-0.62-65.97,19.86-105.26,87.51-141.09c621.06-328.96,1239.07-662.25,1859.7-991.83
	c62.46-33.17,87.25-69.05,86.12-133.18c-4.36-247.86-1.87-495.81-1.93-743.73c-0.01-30.39,0-60.78,0-106.07
	c266.62,0,522.63,0,778.64,0c0,1072.54,0,2145.09,0,3217.63c-256.08,0-512.16,0-781.45,0c0-524.22,0-1039.28,0-1560.12
	c-23.57,7.59-34.07,9.36-42.54,13.94c-399.54,216.06-799.84,431.1-1196.54,651.03c-32.01,17.74-55.06,69.15-55.4,105.11
	c-4.09,436.92-3.13,873.88-3.48,1310.82C3251.72,5513.4,3244.58,5513.4,3237.43,5513.4z" />
	<path class="st0"
		d="M622.09,491.66c838.83-0.72,1677.66-0.64,2516.47-3.3c93.68-0.3,120.24,44.98,120.85,109.66
	c2.35,247.06,0.95,494.14,0.95,748.23c-241.52,0-478.51,0-727.18,0c0-113.32,0-226.37,0-345.79c-405.55,0-799.6,0-1201.99,0
	c0,648.47,0,1296.8,0,1955.03c303.61,0,605.46,0,936.9,0c-91.55,94.81-164.56,172.2-239.82,247.91
	c-97.73,98.32-177.38,232.59-301.57,282.35c-124.03,49.71-293.41,14.76-442.91,15.94c-110.65,0.87-221.31,0.27-331.97,0.15
	c-184-0.2-249.25-41.42-304.66-190.94c-6.16-16.61-16.61-32.02-25.07-47.99C622.09,2339.16,622.09,1415.41,622.09,491.66z" />
	<path class="st0" d="M2537.95,1783.68c237.09,0,471,0,714.51,0c2.47,26.34,7.07,52.78,7.11,79.22
	c0.52,334.26-1.19,668.54,1.89,1002.78c0.55,59.14-17.52,95.14-78.46,126.82c-213.29,110.87-422.53,227.6-645.04,348.49
	C2537.95,2815.96,2537.95,2302.41,2537.95,1783.68z" />
</svg>